<svg xmlns="http://www.w3.org/2000/svg" aria-hidden="true" style="position:absolute;width:0;height:0;overflow:hidden">
  <defs>
    <!-- <symbol id="icon-facebook" viewBox="0 0 32 32">
      <path d="M14.26 11.916v1.836h-1.344v2.244h1.344v6.671h2.763v-6.671h1.853s.175-1.076.259-2.253h-2.101V12.21c0-.231.301-.539.6-.539h1.504V9.334h-2.047c-2.899 0-2.831 2.247-2.831 2.583z"/>
      <path d="M8 5.333A2.668 2.668 0 0 0 5.333 8v16A2.67 2.67 0 0 0 8 26.667h16A2.67 2.67 0 0 0 26.667 24V8A2.668 2.668 0 0 0 24 5.333H8zm0-2.666h16A5.332 5.332 0 0 1 29.333 8v16A5.332 5.332 0 0 1 24 29.333H8A5.332 5.332 0 0 1 2.667 24V8A5.332 5.332 0 0 1 8 2.667z"/>
    </symbol> -->

    <symbol id="icon-close" viewBox="0 0 32 32">
      <path stroke-linejoin="round" stroke-linecap="round" stroke-miterlimit="4" stroke-width="2" d="M27.429 3.429l-24 24"></path>
      <path stroke-linejoin="round" stroke-linecap="round" stroke-miterlimit="4" stroke-width="2" d="M3.429 3.429l24 24"></path>
    </symbol>
    
     <symbol id="icon-facebook" viewBox="0 0 32 32">
      <path fill="#f3c653" style="fill: var(--color1, #f3c653)" opacity="0.7" d="M14.26 11.916v1.836h-1.344v2.244h1.344v6.671h2.763v-6.671h1.853c0 0 0.175-1.076 0.259-2.253h-2.101v-1.533c0-0.231 0.301-0.539 0.6-0.539h1.504v-2.337h-2.047c-2.899 0-2.831 2.247-2.831 2.583z"></path>
      <path fill="#f3c653" style="fill: var(--color1, #f3c653)" opacity="0.7" d="M8 5.333c-0.707 0-1.386 0.281-1.886 0.781s-0.781 1.178-0.781 1.886v16c0 0.707 0.281 1.385 0.781 1.886s1.178 0.781 1.886 0.781h16c0.707 0 1.385-0.281 1.886-0.781s0.781-1.178 0.781-1.886v-16c0-0.707-0.281-1.386-0.781-1.886s-1.178-0.781-1.886-0.781h-16zM8 2.667h16c1.415 0 2.771 0.562 3.771 1.562s1.562 2.357 1.562 3.771v16c0 1.415-0.562 2.771-1.562 3.771s-2.357 1.562-3.771 1.562h-16c-1.415 0-2.771-0.562-3.771-1.562s-1.562-2.357-1.562-3.771v-16c0-1.415 0.562-2.771 1.562-3.771s2.357-1.562 3.771-1.562v0z"></path>
    </symbol>

    <!-- <symbol id="icon-instagram" viewBox="0 0 32 32">
      <path d="M9.953 1.421c1.564-.072 2.063-.088 6.047-.088s4.483.017 6.045.088c1.563.071 2.629.32 3.563.681a7.218 7.218 0 0 1 2.597 1.693 7.158 7.158 0 0 1 1.691 2.596c.363.933.611 2 .683 3.56.072 1.567.088 2.065.088 6.048 0 3.984-.017 4.483-.088 6.047-.071 1.56-.32 2.627-.683 3.56a7.19 7.19 0 0 1-1.691 2.599 7.187 7.187 0 0 1-2.597 1.691c-.933.363-2 .611-3.56.683-1.565.072-2.064.088-6.048.088s-4.483-.017-6.047-.088c-1.56-.071-2.627-.32-3.56-.683a7.19 7.19 0 0 1-2.599-1.691 7.185 7.185 0 0 1-1.692-2.597c-.361-.933-.609-2-.681-3.56-.072-1.567-.088-2.065-.088-6.048 0-3.984.017-4.483.088-6.045s.32-2.629.681-3.563a7.192 7.192 0 0 1 1.693-2.597 7.195 7.195 0 0 1 2.596-1.692c.933-.361 2-.609 3.56-.681h.001zm11.974 2.64C20.38 3.99 19.916 3.976 16 3.976s-4.38.015-5.927.085c-1.431.065-2.207.304-2.724.505a4.57 4.57 0 0 0-1.687 1.096 4.543 4.543 0 0 0-1.096 1.687c-.201.517-.44 1.293-.505 2.724-.071 1.547-.085 2.011-.085 5.927s.015 4.38.085 5.927c.065 1.431.304 2.207.505 2.724a4.56 4.56 0 0 0 1.096 1.687 4.551 4.551 0 0 0 1.687 1.096c.517.201 1.293.44 2.724.505 1.547.071 2.009.085 5.927.085s4.38-.015 5.927-.085c1.431-.065 2.207-.304 2.724-.505a4.57 4.57 0 0 0 1.687-1.096 4.551 4.551 0 0 0 1.096-1.687c.201-.517.44-1.293.505-2.724.071-1.547.085-2.011.085-5.927s-.015-4.38-.085-5.927c-.065-1.431-.304-2.207-.505-2.724a4.57 4.57 0 0 0-1.096-1.687 4.543 4.543 0 0 0-1.687-1.096c-.517-.201-1.293-.44-2.724-.505zm-7.8 16.46a4.895 4.895 0 0 0 6.749-5 4.891 4.891 0 0 0-1.415-2.981 4.887 4.887 0 0 0-3.94-1.408 4.897 4.897 0 0 0-4.204 6.289 4.898 4.898 0 0 0 2.808 3.101zm-3.458-9.852a7.538 7.538 0 1 1 10.66 10.661 7.538 7.538 0 0 1-10.66-10.661zm14.542-1.085a1.785 1.785 0 0 0-.553-2.948 1.772 1.772 0 0 0-1.967.428 1.781 1.781 0 0 0 1.271 3.006c.464.007.912-.167 1.249-.486z"/>
    </symbol> -->

    <symbol id="icon-instagram" viewBox="0 0 32 32">
      <path fill="#f3c653" style="fill: var(--color1, #f3c653)" opacity="0.7" d="M9.953 1.421c1.564-0.072 2.063-0.088 6.047-0.088s4.483 0.017 6.045 0.088c1.563 0.071 2.629 0.32 3.563 0.681 0.977 0.369 1.864 0.947 2.597 1.693 0.747 0.732 1.323 1.617 1.691 2.596 0.363 0.933 0.611 2 0.683 3.56 0.072 1.567 0.088 2.065 0.088 6.048 0 3.984-0.017 4.483-0.088 6.047-0.071 1.56-0.32 2.627-0.683 3.56-0.368 0.979-0.945 1.866-1.691 2.599-0.733 0.747-1.62 1.323-2.597 1.691-0.933 0.363-2 0.611-3.56 0.683-1.565 0.072-2.064 0.088-6.048 0.088s-4.483-0.017-6.047-0.088c-1.56-0.071-2.627-0.32-3.56-0.683-0.979-0.368-1.866-0.945-2.599-1.691-0.746-0.732-1.324-1.619-1.692-2.597-0.361-0.933-0.609-2-0.681-3.56-0.072-1.567-0.088-2.065-0.088-6.048 0-3.984 0.017-4.483 0.088-6.045s0.32-2.629 0.681-3.563c0.369-0.979 0.947-1.865 1.693-2.597 0.732-0.746 1.618-1.323 2.596-1.692 0.933-0.361 2-0.609 3.56-0.681h0.001zM21.927 4.061c-1.547-0.071-2.011-0.085-5.927-0.085s-4.38 0.015-5.927 0.085c-1.431 0.065-2.207 0.304-2.724 0.505-0.684 0.267-1.173 0.583-1.687 1.096-0.487 0.473-0.861 1.050-1.096 1.687-0.201 0.517-0.44 1.293-0.505 2.724-0.071 1.547-0.085 2.011-0.085 5.927s0.015 4.38 0.085 5.927c0.065 1.431 0.304 2.207 0.505 2.724 0.235 0.636 0.609 1.213 1.096 1.687 0.473 0.487 1.051 0.861 1.687 1.096 0.517 0.201 1.293 0.44 2.724 0.505 1.547 0.071 2.009 0.085 5.927 0.085s4.38-0.015 5.927-0.085c1.431-0.065 2.207-0.304 2.724-0.505 0.684-0.267 1.173-0.583 1.687-1.096 0.487-0.473 0.861-1.051 1.096-1.687 0.201-0.517 0.44-1.293 0.505-2.724 0.071-1.547 0.085-2.011 0.085-5.927s-0.015-4.38-0.085-5.927c-0.065-1.431-0.304-2.207-0.505-2.724-0.267-0.684-0.583-1.173-1.096-1.687-0.473-0.487-1.050-0.861-1.687-1.096-0.517-0.201-1.293-0.44-2.724-0.505zM14.127 20.521c1.046 0.435 2.211 0.494 3.296 0.166s2.022-1.022 2.652-1.965c0.63-0.942 0.913-2.074 0.801-3.201s-0.612-2.181-1.415-2.981c-0.512-0.511-1.13-0.903-1.812-1.146s-1.408-0.333-2.128-0.262-1.415 0.301-2.036 0.673c-0.62 0.372-1.151 0.877-1.553 1.478s-0.665 1.285-0.772 2c-0.106 0.715-0.053 1.446 0.157 2.138s0.571 1.329 1.056 1.866c0.486 0.536 1.084 0.958 1.752 1.235zM10.669 10.669c0.7-0.7 1.531-1.255 2.446-1.634s1.895-0.574 2.885-0.574c0.99 0 1.97 0.195 2.885 0.574s1.746 0.934 2.446 1.634c0.7 0.7 1.255 1.531 1.634 2.446s0.574 1.895 0.574 2.885-0.195 1.97-0.574 2.885c-0.379 0.915-0.934 1.746-1.634 2.446-1.414 1.414-3.331 2.208-5.331 2.208s-3.917-0.794-5.331-2.208c-1.414-1.414-2.208-3.331-2.208-5.331s0.794-3.917 2.208-5.331zM25.211 9.584c0.173-0.164 0.312-0.36 0.408-0.579s0.147-0.454 0.151-0.692c0.003-0.238-0.041-0.475-0.131-0.696s-0.223-0.422-0.391-0.59c-0.169-0.169-0.369-0.302-0.59-0.391s-0.458-0.134-0.696-0.131c-0.239 0.003-0.474 0.055-0.692 0.151s-0.415 0.235-0.579 0.408c-0.318 0.337-0.493 0.785-0.486 1.249s0.194 0.907 0.522 1.235c0.328 0.328 0.771 0.515 1.235 0.522s0.912-0.167 1.249-0.486z"></path>
    </symbol>


    <!-- <symbol id="icon-telegram" viewBox="0 0 32 32">
      <path d="M26.07 3.996a2.974 2.974 0 0 0-.933.223h-.004c-.285.113-1.64.683-3.7 1.547l-7.382 3.109c-5.297 2.23-10.504 4.426-10.504 4.426l.062-.024s-.359.118-.734.375c-.232.147-.431.34-.586.567-.184.27-.332.683-.277 1.11.09.722.558 1.155.894 1.394.34.242.664.355.664.355h.008l4.883 1.645c.219.703 1.488 4.875 1.793 5.836.18.574.355.933.574 1.207.106.14.23.257.379.351.077.045.16.081.246.106l-.05-.012c.015.004.027.016.038.02.04.011.067.015.118.023.773.234 1.394-.246 1.394-.246l.035-.028 2.883-2.625 4.832 3.707.11.047c1.007.442 2.027.196 2.566-.238.543-.437.754-.996.754-.996l.035-.09 3.734-19.129c.106-.472.133-.914.016-1.343a1.807 1.807 0 0 0-.781-1.047 1.87 1.87 0 0 0-1.067-.27zm-.101 2.05c-.004.063.008.056-.02.177v.011l-3.699 18.93c-.016.027-.043.086-.117.145-.078.062-.14.101-.465-.028l-5.91-4.531-3.57 3.254.75-4.79 9.656-9c.398-.37.265-.448.265-.448.028-.454-.601-.133-.601-.133l-12.176 7.543-.004-.02-5.851-1.972a.188.188 0 0 0 .03-.012l.032-.016.031-.011s5.211-2.196 10.508-4.426c2.652-1.117 5.324-2.242 7.379-3.11a831.676 831.676 0 0 1 3.66-1.53c.082-.032.043-.032.102-.032v-.001z"/>
    </symbol> -->

<symbol id="icon-telegram" viewBox="0 0 34 32">
      <path fill="#f3c653" style="fill: var(--color1, #f3c653)" opacity="0.7" d="M31.246 1.679c-0.406 0.030-0.804 0.125-1.179 0.282h-0.005c-0.36 0.143-2.072 0.863-4.674 1.954l-9.325 3.927c-6.691 2.817-13.268 5.591-13.268 5.591l0.078-0.030c0 0-0.453 0.149-0.927 0.474-0.293 0.186-0.544 0.43-0.74 0.716-0.232 0.341-0.419 0.863-0.35 1.402 0.114 0.912 0.705 1.459 1.129 1.761 0.429 0.306 0.839 0.448 0.839 0.448h0.010l6.168 2.078c0.277 0.888 1.88 6.158 2.265 7.372 0.227 0.725 0.448 1.178 0.725 1.525 0.134 0.177 0.291 0.325 0.479 0.443 0.098 0.057 0.202 0.102 0.311 0.134l-0.063-0.015c0.019 0.005 0.034 0.020 0.048 0.025 0.051 0.014 0.085 0.019 0.149 0.029 0.976 0.296 1.761-0.311 1.761-0.311l0.044-0.035 3.642-3.316 6.104 4.682
0.139 0.059c1.272 0.558 2.561 0.248 3.241-0.301 0.686-0.552 0.952-1.258 0.952-1.258l0.044-0.114 4.717-24.163c0.134-0.596 0.168-1.155 0.020-1.696-0.152-0.548-0.504-1.020-0.987-1.323-0.405-0.246-0.874-0.365-1.348-0.341zM31.119 4.268c-0.005 0.080 0.010 0.071-0.025 0.224v0.014l-4.672 23.912c-0.020 0.034-0.054 0.109-0.148 0.183-0.099 0.078-0.177 0.128-0.587-0.035l-7.465-5.723-4.509 4.11 0.947-6.051 12.197-11.368c0.503-0.467 0.335-0.566 0.335-0.566 0.035-0.573-0.759-0.168-0.759-0.168l-15.38 9.528-0.005-0.025-7.391-2.491c0.013-0.004 0.026-0.009 0.038-0.015l0.040-0.020 0.039-0.014c0 0 6.582-2.774 13.273-5.591 3.35-1.411 6.725-2.832 9.321-3.928 1.54-0.648 3.081-1.292 4.623-1.933 0.104-0.040 0.054-0.040 0.129-0.040v-0.001z"></path>
    </symbol>

    <symbol id="icon-location" viewBox="0 0 32 32">
      <path d="M16 3.214c-4.419 0-8 3.566-8 7.984 0 7.638 8 17.6 8 17.6s8-9.963 8-17.6c0-4.416-3.581-7.984-8-7.984zM16 15.616c-1.146 0-2.245-0.455-3.055-1.265s-1.265-1.909-1.265-3.055c0-1.146 0.455-2.245 1.265-3.055s1.909-1.265 3.055-1.265c1.146 0 2.244 0.455 3.055 1.265s1.265 1.909 1.265 3.055-0.455 2.245-1.265 3.055c-0.81 0.81-1.909 1.265-3.055 1.265z"></path>
    </symbol>
    <symbol id="icon-phone-24" viewBox="0 0 20 24">

<path fill="#f3c653" style="fill: var(--color1, #f3c653)" d="M13.125 1.667c0.497 0 0.974 0.198 1.326 0.549s0.549 0.829 0.549 1.326v12.917c0 0.497-0.198 0.974-0.549 1.326s-0.829 0.549-1.326 0.549h-6.25c-0.497 0-0.974-0.198-1.326-0.549s-0.549-0.829-0.549-1.326v-12.917c0-0.497 0.198-0.974 0.549-1.326s0.829-0.549 1.326-0.549h6.25zM13.125 2.917h-6.25c-0.166 0-0.325 0.066-0.442 0.183s-0.183 0.276-0.183 0.442v12.917c0 0.345 0.28 0.625 0.625 0.625h6.25c0.166 0 0.325-0.066 0.442-0.183s0.183-0.276 0.183-0.442v-12.917c0-0.166-0.066-0.325-0.183-0.442s-0.276-0.183-0.442-0.183zM11.041 14.583c0.166-0 0.325 0.065 0.442 0.183s0.183 0.276 0.184 0.442-0.065 0.325-0.183 0.442c-0.117 0.117-0.276 0.183-0.442 0.184l-2.083 0.003c-0.166 0-0.325-0.065-0.442-0.183s-0.183-0.276-0.184-0.442c-0-0.166 0.065-0.325 0.182-0.442s0.276-0.183 0.442-0.184l2.083-0.003z"></path>
</symbol>
<symbol id="icon-Vector-4" viewBox="0 0 55 32">
<path  d="M53.482 14.222h-46.36l10.666-10.666-2.514-2.514-14.958 14.958 14.958 14.958 2.514-2.514-10.666-10.666h46.36v-3.556z"></path>
</symbol>
<symbol id="icon-Vector-3" viewBox="0 0 53 32">
<path   d="M38.208 1.042l-2.514 2.514 10.666 10.666h-46.36v3.556h46.36l-10.666 10.666 2.514 2.514 14.958-14.958-14.958-14.958z"></path>

      <path fill="#f3c653" style="fill: var(--color1, #f3c653)" d="M13.125 1.667c0.497 0 0.974 0.198 1.326 0.549s0.549 0.829 0.549 1.326v12.917c0 0.497-0.198 0.974-0.549 1.326s-0.829 0.549-1.326 0.549h-6.25c-0.497 0-0.974-0.198-1.326-0.549s-0.549-0.829-0.549-1.326v-12.917c0-0.497 0.198-0.974 0.549-1.326s0.829-0.549 1.326-0.549h6.25zM13.125 2.917h-6.25c-0.166 0-0.325 0.066-0.442 0.183s-0.183 0.276-0.183 0.442v12.917c0 0.345 0.28 0.625 0.625 0.625h6.25c0.166 0 0.325-0.066 0.442-0.183s0.183-0.276 0.183-0.442v-12.917c0-0.166-0.066-0.325-0.183-0.442s-0.276-0.183-0.442-0.183zM11.041 14.583c0.166-0 0.325 0.065 0.442 0.183s0.183 0.276 0.184 0.442-0.065 0.325-0.183 0.442c-0.117 0.117-0.276 0.183-0.442 0.184l-2.083 0.003c-0.166 0-0.325-0.065-0.442-0.183s-0.183-0.276-0.184-0.442c-0-0.166 0.065-0.325 0.182-0.442s0.276-0.183 0.442-0.184l2.083-0.003z"></path>
    </symbol>
    <symbol id="icon-Vector-5" viewBox="0 0 19 32">
      <path fill="#f3c653" style="fill: var(--color1, #f3c653)" d="M15.6 0c0.955 0 1.87 0.379 2.546 1.054s1.054 1.591 1.054 2.546v24.8c0 0.955-0.379 1.87-1.054 2.546s-1.591 1.054-2.546 1.054h-12c-0.955 0-1.87-0.379-2.546-1.054s-1.054-1.591-1.054-2.546v-24.8c0-0.955 0.379-1.87 1.054-2.546s1.591-1.054 2.546-1.054h12zM15.6 2.4h-12c-0.318 0-0.623 0.126-0.849 0.351s-0.351 0.53-0.351 0.849v24.8c0 0.662 0.538 1.2 1.2 1.2h12c0.318 0 0.624-0.126 0.848-0.352s0.352-0.53 0.352-0.848v-24.8c0-0.318-0.126-0.623-0.352-0.849s-0.53-0.351-0.848-0.351zM11.598 24.8c0.318-0 0.624 0.126 0.849 0.35s0.352 0.53 0.353 0.848-0.126 0.624-0.35 0.849c-0.225 0.225-0.53 0.352-0.848 0.353l-4 0.006c-0.318 0-0.624-0.126-0.849-0.35s-0.352-0.53-0.353-0.848 0.126-0.624 0.35-0.849c0.225-0.225 0.53-0.352 0.848-0.353l4-0.006z"></path>
    </symbol>
    <symbol id="icon-Vector-2" viewBox="0 0 53 32">
<path d="M38.208 1.042l-2.514 2.514 10.666 10.666h-46.36v3.556h46.36l-10.666 10.666 2.514 2.514 14.958-14.958-14.958-14.958z"></path>
</symbol>
<symbol id="icon-Vector-1" viewBox="0 0 55 32">
<path d="M53.481 14.222h-46.36l10.666-10.666-2.514-2.514-14.958 14.958 14.958 14.958 2.514-2.514-10.666-10.666h46.36v-3.556z"></path>
</symbol>

<!-- <symbol id="icon-close" viewBox="0 0 32 32">
<path stroke-linejoin="round" stroke-linecap="round" stroke-miterlimit="4" stroke-width="2" d="M27.429 3.429l-24 24"></path>
<path stroke-linejoin="round" stroke-linecap="round" stroke-miterlimit="4" stroke-width="2" d="M3.429 3.429l24 24"></path>
</symbol> -->

<symbol id="icon-Vector-arrow1" viewBox="0 0 55 32">
<path  d="M53.482 14.222h-46.36l10.666-10.666-2.514-2.514-14.958 14.958 14.958 14.958 2.514-2.514-10.666-10.666h46.36v-3.556z"></path>

</symbol>
<symbol id="icon-Vector-arrow2" viewBox="0 0 53 32">
<path   d="M38.208 1.042l-2.514 2.514 10.666 10.666h-46.36v3.556h46.36l-10.666 10.666 2.514 2.514 14.958-14.958-14.958-14.958z"></path>
</symbol>

    <symbol id="icon-arrow-left" viewBox="0 0 55 32">
      <path d="M55.060 14.181h-47.414l10.909-10.909-2.571-2.571-15.298 15.298 15.298 15.298 2.571-2.571-10.909-10.909h47.414v-3.636z"></path>
    </symbol>
    <symbol id="icon-arrow-right" viewBox="0 0 55 32">
      <path d="M39.44 0.702l-2.571 2.571 10.909 10.909h-47.414v3.636h47.414l-10.909 10.908 2.571 2.571 15.298-15.298-15.298-15.298z"></path>
    </symbol>
    <symbol id="icon-close" viewBox="0 0 32 32">
<path fill="#000000" stroke="#000000" style="stroke: var(--color1, #000000)" stroke-linejoin="round" stroke-linecap="round" stroke-miterlimit="4" stroke-width="2" d="M27.428 3.429l-24 24"></path>
<path fill="#000000" stroke="#000000" style="stroke: var(--color1, #000000)" stroke-linejoin="round" stroke-linecap="round" stroke-miterlimit="4" stroke-width="2" d="M3.428 3.429l24 24"></path>
</symbol>
  </defs>
</svg>
